<svg xmlns="http://www.w3.org/2000/svg" width="19.522" height="19.522" viewBox="16 271 19.522 19.522"><g data-name="contact us"><path d="M25.76 275.093a1.26 1.26 0 0 0 1.26-1.26 1.26 1.26 0 0 0-2.519 0c0 .695.565 1.26 1.26 1.26Zm0-1.889a.63.63 0 1 1 0 1.26.63.63 0 0 1 0-1.26Zm0 0" fill="#ed9728" fill-rule="evenodd" data-name="Path 8609"/><path d="m34.4 286.172-2.027-.608v-.478c.587-.41.944-1.086.944-1.806v-.945a2.207 2.207 0 0 0-2.204-2.204 2.207 2.207 0 0 0-2.204 2.204v.945c0 .72.358 1.396.945 1.806v.478l-1.417.425-1.417-.425v-.478c.587-.41.945-1.086.945-1.806v-.945a2.207 2.207 0 0 0-2.204-2.204 2.207 2.207 0 0 0-2.204 2.204v.945c0 .72.357 1.396.944 1.806v.478l-1.417.425-1.417-.425v-.478c.587-.41.945-1.086.945-1.806v-.945a2.207 2.207 0 0 0-2.204-2.204 2.207 2.207 0 0 0-2.204 2.204v.945c0 .72.358 1.396.945 1.806v.478l-2.027.608A1.565 1.565 0 0 0 16 287.68v2.841H35.52v-2.84c0-.701-.45-1.307-1.121-1.509Zm-3.287-5.411c.76 0 1.397.542 1.543 1.26h-.839a2.68 2.68 0 0 1-1.193-.283l-.203-.101-.16.16a.764.764 0 0 1-.537.223h-.153a1.577 1.577 0 0 1 1.542-1.26Zm-1.574 2.519v-.63h.185c.295 0 .575-.091.81-.26.405.17.844.26 1.283.26h.87v.63a1.58 1.58 0 0 1-.787 1.362l-.157.09v.898l-.63.42-.63-.42v-.897l-.156-.091a1.58 1.58 0 0 1-.788-1.362Zm-3.778-2.52c.76 0 1.396.543 1.542 1.26h-.838a2.68 2.68 0 0 1-1.193-.282l-.203-.101-.161.16a.764.764 0 0 1-.537.223h-.153a1.577 1.577 0 0 1 1.543-1.26Zm-1.575 2.52v-.63h.185c.295 0 .575-.091.81-.26.405.17.844.26 1.284.26h.87v.63a1.58 1.58 0 0 1-.787 1.362l-.158.09v.898l-.63.42-.629-.42v-.897l-.157-.091a1.58 1.58 0 0 1-.788-1.362Zm.579 2.863.996.664.996-.664 2.109.632c.403.121.673.485.673.905v2.212h-7.557v-2.212c0-.42.27-.784.674-.905l2.109-.632Zm-4.357-5.382c.76 0 1.396.542 1.543 1.26h-.153a.765.765 0 0 1-.538-.223l-.16-.161-.203.101c-.369.185-.781.282-1.193.282h-.838a1.577 1.577 0 0 1 1.542-1.26Zm-1.574 2.519v-.63h.87c.44 0 .879-.09 1.284-.26.234.169.515.26.81.26h.184v.63a1.58 1.58 0 0 1-.787 1.362l-.157.09v.898l-.63.42-.63-.42v-.897l-.157-.091a1.58 1.58 0 0 1-.787-1.362Zm-2.204 4.4c0-.42.27-.784.673-.905l2.11-.633.995.665.996-.664.689.206a1.56 1.56 0 0 0-.74 1.331v2.212H16.63v-2.212Zm18.262 2.212h-4.723v-2.212a1.56 1.56 0 0 0-.74-1.33l.688-.207.996.664.996-.664 2.11.632c.402.121.673.485.673.905v2.212Zm0 0" fill="#ed9728" fill-rule="evenodd" data-name="Path 8610"/><path d="M19.463 278.557c.092 0 .177.045.228.122l.717 1.075.717-1.075a.274.274 0 0 1 .228-.122h3.463c.092 0 .177.045.228.122l.717 1.075.717-1.075a.274.274 0 0 1 .227-.122h3.464c.091 0 .176.045.227.122l.717 1.075.717-1.075a.274.274 0 0 1 .228-.122 2.522 2.522 0 0 0 2.519-2.52 2.522 2.522 0 0 0-2.519-2.518h-3.464v-.227l-.407-.136a2.462 2.462 0 0 0-.232-.558l.193-.385-.767-.766-.384.192a2.496 2.496 0 0 0-.558-.232l-.136-.407h-1.084l-.136.407a2.47 2.47 0 0 0-.558.232l-.385-.192-.766.766.192.385c-.1.176-.177.363-.231.558l-.408.136v.227h-3.464a2.522 2.522 0 0 0-2.519 2.519 2.522 2.522 0 0 0 2.52 2.519Zm4.094-4.811.316-.105.036-.18c.048-.24.142-.467.279-.673l.101-.152-.149-.299.124-.124.299.15.152-.102c.206-.137.433-.231.673-.28l.18-.035.105-.316h.176l.105.316.18.036c.24.048.467.142.673.279l.152.101.298-.149.125.124-.15.299.102.152c.137.206.23.432.279.673l.036.18.316.105v.176l-.316.105-.036.18c-.048.24-.143.467-.28.673l-.101.152.15.298-.125.125-.298-.15-.153.102a1.868 1.868 0 0 1-.673.279l-.18.036-.105.316h-.175l-.106-.316-.179-.036a1.872 1.872 0 0 1-.673-.28l-.152-.101-.299.15-.124-.125.15-.298-.102-.153a1.868 1.868 0 0 1-.28-.673l-.036-.18-.315-.105v-.175Zm-4.094.403h3.464v.227l.407.136c.054.195.132.381.232.558l-.192.384.766.767.385-.193c.176.1.363.178.558.232l.136.407h1.083l.136-.407a2.47 2.47 0 0 0 .558-.232l.385.193.766-.767-.192-.384c.1-.177.177-.363.232-.558l.407-.136v-.227h3.464c1.042 0 1.89.847 1.89 1.889s-.848 1.889-1.89 1.889a.902.902 0 0 0-.752.402l-.193.29-.193-.29a.902.902 0 0 0-.751-.402h-3.464a.902.902 0 0 0-.751.402l-.193.29-.193-.29a.902.902 0 0 0-.752-.402h-3.463a.902.902 0 0 0-.752.402l-.193.29-.193-.29a.902.902 0 0 0-.752-.402 1.891 1.891 0 0 1-1.889-1.89c0-1.041.848-1.888 1.89-1.888Zm0 0" fill="#ed9728" fill-rule="evenodd" data-name="Path 8611"/><path d="M18.834 275.723h.63v.63h-.63v-.63Zm0 0" fill="#ed9728" fill-rule="evenodd" data-name="Path 8612"/><path d="M20.093 275.723h.63v.63h-.63v-.63Zm0 0" fill="#ed9728" fill-rule="evenodd" data-name="Path 8613"/><path d="M21.353 275.723h.63v.63h-.63v-.63Zm0 0" fill="#ed9728" fill-rule="evenodd" data-name="Path 8614"/><path d="M29.54 275.723h.629v.63h-.63v-.63Zm0 0" fill="#ed9728" fill-rule="evenodd" data-name="Path 8615"/><path d="M30.799 275.723h.63v.63h-.63v-.63Zm0 0" fill="#ed9728" fill-rule="evenodd" data-name="Path 8616"/><path d="M32.058 275.723h.63v.63h-.63v-.63Zm0 0" fill="#ed9728" fill-rule="evenodd" data-name="Path 8617"/></g></svg>