<svg xmlns="http://www.w3.org/2000/svg" width="13.657" height="16.469" viewBox="19 322 13.657 16.469"><g data-name="invite friends"><g data-name="Group 2690"><g data-name="Group 2689"><g data-name="Path 8624"><path d="M21.711 327.624a2.714 2.714 0 0 0-2.711 2.71 2.714 2.714 0 0 0 2.711 2.712 2.714 2.714 0 0 0 2.712-2.711 2.714 2.714 0 0 0-2.712-2.711Zm0 4.217c-.83 0-1.506-.675-1.506-1.506 0-.83.676-1.506 1.506-1.506.831 0 1.507.675 1.507 1.506 0 .83-.676 1.506-1.507 1.506Z" fill="#ed9728" fill-rule="evenodd"/><path d="M21.711 327.624a2.714 2.714 0 0 0-2.711 2.71 2.714 2.714 0 0 0 2.711 2.712 2.714 2.714 0 0 0 2.712-2.711 2.714 2.714 0 0 0-2.712-2.711Zm0 4.217c-.83 0-1.506-.675-1.506-1.506 0-.83.676-1.506 1.506-1.506.831 0 1.507.675 1.507 1.506 0 .83-.676 1.506-1.507 1.506Z" stroke-linejoin="round" stroke-linecap="round" stroke-width=".5" stroke="#fff" fill="transparent"/></g></g></g><g data-name="Group 2692"><g data-name="Group 2691"><g data-name="Path 8625"><path d="M29.946 322a2.714 2.714 0 0 0-2.712 2.711 2.714 2.714 0 0 0 2.712 2.712 2.714 2.714 0 0 0 2.711-2.712A2.714 2.714 0 0 0 29.946 322Zm0 4.218a1.508 1.508 0 0 1 0-3.013c.83 0 1.506.676 1.506 1.506 0 .831-.675 1.507-1.506 1.507Z" fill="#ed9728" fill-rule="evenodd"/><path d="M29.946 322a2.714 2.714 0 0 0-2.712 2.711 2.714 2.714 0 0 0 2.712 2.712 2.714 2.714 0 0 0 2.711-2.712A2.714 2.714 0 0 0 29.946 322Zm0 4.218a1.508 1.508 0 0 1 0-3.013c.83 0 1.506.676 1.506 1.506 0 .831-.675 1.507-1.506 1.507Z" stroke-linejoin="round" stroke-linecap="round" stroke-width=".5" stroke="#fff" fill="transparent"/></g></g></g><g data-name="Group 2694"><g data-name="Group 2693"><g data-name="Path 8626"><path d="M29.946 333.046a2.714 2.714 0 0 0-2.712 2.712 2.714 2.714 0 0 0 2.712 2.711 2.714 2.714 0 0 0 2.711-2.711 2.714 2.714 0 0 0-2.711-2.712Zm0 4.218c-.83 0-1.506-.676-1.506-1.506 0-.831.675-1.507 1.506-1.507a1.508 1.508 0 0 1 0 3.013Z" fill="#ed9728" fill-rule="evenodd"/><path d="M29.946 333.046a2.714 2.714 0 0 0-2.712 2.712 2.714 2.714 0 0 0 2.712 2.711 2.714 2.714 0 0 0 2.711-2.711 2.714 2.714 0 0 0-2.711-2.712Zm0 4.218c-.83 0-1.506-.676-1.506-1.506 0-.831.675-1.507 1.506-1.507a1.508 1.508 0 0 1 0 3.013Z" stroke-linejoin="round" stroke-linecap="round" stroke-width=".5" stroke="#fff" fill="transparent"/></g></g></g><g data-name="Group 2696"><g data-name="Group 2695"><path d="m23.072 328.765 5.06-3.273.655 1.012-5.061 3.273-.654-1.012z" fill="#ed9728" fill-rule="evenodd" data-name="Rectangle 1827"/></g></g><g data-name="Group 2698"><g data-name="Group 2697"><path d="m23.07 331.966.656-1.011 4.92 3.193-.655 1.011-4.921-3.193z" fill="#ed9728" fill-rule="evenodd" data-name="Rectangle 1828"/></g></g></g></svg>