<svg xmlns="http://www.w3.org/2000/svg" width="15.408" height="15.407" viewBox="22.231 246 15.408 15.407"><g data-name="logout"><g data-name="Group 2726"><g data-name="Group 2725"><path d="M25.57 252.674a.257.257 0 0 0-.257.257v1.54a.257.257 0 0 0 .514 0v-1.54a.257.257 0 0 0-.257-.257Z" fill="#ed9728" fill-rule="evenodd" data-name="Path 8657"/><path d="m25.598 246.069-2.428.971c-.684.253-.939.597-.939 1.268v10.788c0 .671.255 1.015.932 1.266l2.44.976c.12.046.241.069.36.069.516 0 .891-.432.891-1.026v-13.357c0-.73-.582-1.21-1.256-.955Zm.742 14.312c0 .306-.151.512-.377.512a.508.508 0 0 1-.175-.033l-2.44-.977c-.485-.18-.603-.334-.603-.787v-10.788c0-.452.118-.607.61-.789l2.429-.971a.511.511 0 0 1 .179-.036c.226 0 .377.206.377.512v13.357Z" fill="#ed9728" fill-rule="evenodd" data-name="Path 8658"/><path d="M27.592 247.538h3.628c.424 0 .77.345.77.77v3.852a.257.257 0 1 0 .514 0v-3.852c0-.708-.576-1.284-1.284-1.284h-3.628a.257.257 0 0 0 0 .514Z" fill="#ed9728" fill-rule="evenodd" data-name="Path 8659"/><path d="M32.247 254.985a.257.257 0 0 0-.257.257v3.852c0 .425-.345.77-.77.77h-3.596a.257.257 0 0 0 0 .514h3.596c.708 0 1.284-.576 1.284-1.284v-3.852a.257.257 0 0 0-.257-.257Z" fill="#ed9728" fill-rule="evenodd" data-name="Path 8660"/><path d="M37.62 253.603a.257.257 0 0 0-.056-.084l-2.567-2.568a.257.257 0 1 0-.364.363l2.13 2.13h-8.625a.257.257 0 0 0 0 .514h8.625l-2.13 2.13a.257.257 0 1 0 .364.363l2.567-2.568a.257.257 0 0 0 .056-.28Z" fill="#ed9728" fill-rule="evenodd" data-name="Path 8661"/></g></g></g></svg>